<?xml version="1.0" standalone="no"?><!DOCTYPE svg PUBLIC "-//W3C//DTD SVG 1.1//EN" "http://www.w3.org/Graphics/SVG/1.1/DTD/svg11.dtd"><svg t="1690336823026" class="icon" viewBox="0 0 1024 1024" version="1.1" xmlns="http://www.w3.org/2000/svg" p-id="15469" xmlns:xlink="http://www.w3.org/1999/xlink" width="200" height="200"><path d="M746.666667 802.133333c-102.4 0-179.2-51.2-179.2-119.466666 0-17.066667 12.8-34.133333 34.133333-34.133334s34.133333 12.8 34.133333 34.133334 46.933333 55.466667 115.2 55.466666c72.533333 0 119.466667-29.866667 119.466667-55.466666 0-17.066667 12.8-34.133333 34.133333-34.133334s34.133333 12.8 34.133334 34.133334c-12.8 64-89.6 119.466667-192 119.466666z" fill="#323232" p-id="15470"></path><path d="M746.666667 674.133333c-102.4 0-183.466667-51.2-183.466667-119.466666 0-17.066667 12.8-34.133333 34.133333-34.133334s34.133333 12.8 34.133334 34.133334 46.933333 55.466667 119.466666 55.466666 119.466667-29.866667 119.466667-55.466666c0-17.066667 12.8-34.133333 34.133333-34.133334s34.133333 12.8 34.133334 34.133334c-8.533333 64-89.6 119.466667-192 119.466666z" fill="#323232" p-id="15471"></path><path d="M746.666667 930.133333c-102.4 0-179.2-51.2-179.2-119.466666v-256c0-64 81.066667-115.2 183.466666-115.2 46.933333 0 89.6 8.533333 119.466667 29.866666 38.4 21.333333 59.733333 55.466667 59.733333 89.6v256c-4.266667 59.733333-81.066667 115.2-183.466666 115.2zM631.466667 554.666667v256c0 21.333333 46.933333 55.466667 115.2 55.466666 72.533333 0 119.466667-29.866667 119.466666-55.466666v-256c0-8.533333-8.533333-21.333333-25.6-34.133334-21.333333-12.8-55.466667-21.333333-89.6-21.333333-76.8 4.266667-119.466667 34.133333-119.466666 55.466667zM469.333333 379.733333H174.933333c-42.666667 0-81.066667-34.133333-81.066666-81.066666V132.266667c0-42.666667 34.133333-81.066667 81.066666-81.066667H469.333333c42.666667 0 81.066667 34.133333 81.066667 81.066667V298.666667c0 46.933333-38.4 81.066667-81.066667 81.066666zM174.933333 119.466667c-8.533333 0-17.066667 8.533333-17.066666 17.066666v166.4c0 8.533333 8.533333 17.066667 17.066666 17.066667H469.333333c8.533333 0 17.066667-8.533333 17.066667-17.066667v-170.666666c0-8.533333-8.533333-17.066667-17.066667-17.066667H174.933333zM426.666667 887.466667H200.533333c-59.733333 0-106.666667-46.933333-106.666666-106.666667V597.333333c0-17.066667 12.8-34.133333 34.133333-34.133333s34.133333 12.8 34.133333 34.133333v183.466667c0 21.333333 17.066667 42.666667 42.666667 42.666667H426.666667c17.066667 0 34.133333 12.8 34.133333 34.133333s-17.066667 29.866667-34.133333 29.866667zM896 375.466667c-17.066667 0-34.133333-12.8-34.133333-34.133334V200.533333c0-21.333333-17.066667-42.666667-42.666667-42.666666H682.666667c-17.066667 0-34.133333-12.8-34.133334-34.133334s12.8-34.133333 34.133334-34.133333h140.8c59.733333 0 106.666667 46.933333 106.666666 106.666667V341.333333c0 17.066667-17.066667 34.133333-34.133333 34.133334z" fill="#323232" p-id="15472"></path><path d="M324.266667 503.466667c-17.066667 0-34.133333-12.8-34.133334-34.133334V349.866667c0-17.066667 12.8-34.133333 34.133334-34.133334s34.133333 12.8 34.133333 34.133334V469.333333c-4.266667 17.066667-17.066667 34.133333-34.133333 34.133334z" fill="#323232" p-id="15473"></path><path d="M409.6 503.466667h-170.666667c-17.066667 0-34.133333-12.8-34.133333-34.133334s12.8-34.133333 34.133333-34.133333h170.666667c17.066667 0 34.133333 12.8 34.133333 34.133333s-17.066667 34.133333-34.133333 34.133334z" fill="#323232" p-id="15474"></path></svg>