<?xml version="1.0" standalone="no"?><!DOCTYPE svg PUBLIC "-//W3C//DTD SVG 1.1//EN" "http://www.w3.org/Graphics/SVG/1.1/DTD/svg11.dtd"><svg t="1690287595380" class="icon" viewBox="0 0 1024 1024" version="1.1" xmlns="http://www.w3.org/2000/svg" p-id="2165" xmlns:xlink="http://www.w3.org/1999/xlink" width="200" height="200"><path d="M770.25 466.68H615.52a29.99 29.99 0 0 0-26.21 15.41l-78.3 140.66a30.014 30.014 0 0 0 0 29.19l78.3 140.61a30.014 30.014 0 0 0 26.21 15.41h154.73c10.89 0 20.92-5.9 26.21-15.41l78.3-140.63a30.014 30.014 0 0 0 0-29.19l-78.3-140.63a29.98 29.98 0 0 0-26.21-15.42z m-22.67 270.01H638.19l-55.3-99.34 55.3-99.36h109.39l55.3 99.34-55.3 99.36z" p-id="2166"></path><path d="M692.93 587.32c-27.59 0-49.96 22.39-49.96 50h-0.08v0.08c0.05 27.61 22.45 49.96 50.04 49.92 27.59 0 49.96-22.39 49.96-50 0-27.62-22.37-50-49.96-50z" p-id="2167"></path><path d="M434.96 682.79L224.49 893.26l-94.02-94.02 385.64-385.91-9.97-37.37c-18.9-67.26-0.27-139.5 48.8-189.23a191.176 191.176 0 0 1 136.17-55.98c10.13 0.01 20.24 0.78 30.25 2.33l-70.21 70.28c-38.93 38.95-38.93 102.08 0 141.03l28.26 28.19c38.95 38.93 102.08 38.93 141.03 0l69.95-69.62c7.97 51.37-5.03 103.37-35.32 144.68-7.76 10.58-8.74 24.68-2.36 36.15 11.74 21.09 41.43 23.25 55.86 3.89 49.6-66.54 66.33-155.74 36.88-239.98a265.562 265.562 0 0 0-17.23-40.1c-6.33-11.92-22.32-14.43-31.87-4.88L773.44 325.63c-12.98 12.98-34.03 12.98-47.01 0l-28.26-28.19c-12.98-12.98-12.98-34.03 0-47.01l122.97-123.08c9.54-9.55 7.03-25.54-4.89-31.87a269.372 269.372 0 0 0-40.02-17.26 265.803 265.803 0 0 0-85.17-13.96 257.112 257.112 0 0 0-183.18 75.47c-65.96 66.67-91.11 163.59-65.89 253.93L83.47 752.16c-25.96 25.96-25.96 68.05 0 94.02l94.02 94.08a66.043 66.043 0 0 0 47.01 19.48c17.64 0.05 34.57-6.97 47.01-19.48l210.52-210.4c10.52-10.52 12.79-26.74 5.55-39.73-10.76-19.3-37-22.96-52.62-7.34z" p-id="2168"></path></svg>