<?xml version="1.0" standalone="no"?><!DOCTYPE svg PUBLIC "-//W3C//DTD SVG 1.1//EN" "http://www.w3.org/Graphics/SVG/1.1/DTD/svg11.dtd"><svg t="1690335862104" class="icon" viewBox="0 0 1024 1024" version="1.1" xmlns="http://www.w3.org/2000/svg" p-id="8451" xmlns:xlink="http://www.w3.org/1999/xlink" width="200" height="200"><path d="M656.66482 340.387812h99.279778V136.155125h65.240998l-113.462604-136.155125-113.462604 136.155125h62.404432zM662.33795 822.603878h-283.65651v141.828255h-255.290858v56.731302h794.238227v-56.731302h-255.290859zM208.487535 198.559557h56.731302v397.119113h-56.731302zM321.950139 425.484765h56.731301v170.193905h-56.731301zM435.412742 312.022161h56.731302v283.656509h-56.731302zM548.875346 453.850416h56.731302v141.828254h-56.731302zM775.800554 453.850416h56.731302v141.828254h-56.731302zM662.33795 510.581717h56.731302v85.096953h-56.731302z" p-id="8452"></path><path d="M920.465374 56.731302h-34.038781v51.058172h34.038781c14.182825 0 25.529086 11.34626 25.529086 25.529086v524.764542c0 14.182825-11.34626 25.529086-25.529086 25.529086H117.717452c-14.182825 0-25.529086-11.34626-25.529086-25.529086V136.155125c0-14.182825 11.34626-25.529086 25.529086-25.529086h402.792243V56.731302H117.717452c-45.385042 0-79.423823 34.038781-79.423823 79.423823v524.764543c0 42.548476 36.875346 79.423823 79.423823 79.423822h802.747922c45.385042 0 79.423823-34.038781 79.423823-79.423822V136.155125c2.836565-42.548476-34.038781-79.423823-79.423823-79.423823z" p-id="8453"></path></svg>