<?xml version="1.0" standalone="no"?><!DOCTYPE svg PUBLIC "-//W3C//DTD SVG 1.1//EN" "http://www.w3.org/Graphics/SVG/1.1/DTD/svg11.dtd"><svg t="1690435076083" class="icon" viewBox="0 0 1024 1024" version="1.1" xmlns="http://www.w3.org/2000/svg" p-id="18548" xmlns:xlink="http://www.w3.org/1999/xlink" width="200" height="200"><path d="M939.968 0.016H319.962c-11.046 0-20 8.956-20 20s8.954 20 20 20h548.494a83.472 83.472 0 0 0-12.484 43.998v261.964c0 11.044 8.954 20 20 20s20-8.956 20-20v-61.97h107.996c11.046 0 20-8.956 20-20V84.014c-0.002-46.316-37.682-83.998-84-83.998z m44 243.992h-87.998V84.014c0-24.262 19.738-43.998 43.998-43.998s43.998 19.738 43.998 43.998v159.994zM1002.144 815.048l-130.64-130.64c15.076-30.748 23.556-65.29 23.556-101.78 0-127.922-104.072-231.992-231.992-231.992s-231.992 104.07-231.992 231.992c0 29.246 5.454 57.24 15.376 83.036l-23.41 23.41-96.286-96.288a20.002 20.002 0 0 0-28.284 0l-22.51 22.51v-182.624c0-11.044-8.954-20-20-20s-20 8.956-20 20v222.624l-180.83 180.832c-7.81 7.81-7.81 20.474 0 28.286 3.906 3.904 9.024 5.858 14.142 5.858s10.238-1.954 14.142-5.858l152.546-152.546v144.128H147.978c-11.046 0-20 8.956-20 20v63.998c0 46.316 37.68 83.998 83.998 83.998h599.996c46.318 0 84-37.682 84-84.002v-17.17c13.992 13.582 32.436 21.05 52.134 21.05l0.376-0.002c20.144-0.098 39.066-7.982 53.286-22.202 29.496-29.502 29.666-77.328 0.376-106.618zM663.066 390.634c105.866 0 191.994 86.128 191.994 191.994s-86.128 191.994-191.994 191.994c-72.696 0-136.082-40.612-168.666-100.338l115.58-115.58v45.374c0 11.044 8.954 20 20 20s20-8.956 20-20v-95.984c0-11.044-8.954-20-20-20h-95.986c-11.046 0-20 8.956-20 20s8.954 20 20 20h50.03l-105.948 105.948a191.488 191.488 0 0 1-7.002-51.412c-0.002-105.87 86.126-191.996 191.992-191.996zM211.974 983.986c-24.262-0.002-43.998-19.74-43.998-44v-43.998h559.994v24c0 0.654 0.036 1.3 0.098 1.938a20.02 20.02 0 0 0-0.098 1.938v16.122a83.464 83.464 0 0 0 12.486 44.002H211.974z m643.998-44.006c0 24.266-19.74 44.004-44 44.004-24.264 0-44.002-19.74-44.002-44.002v-16.122c0-0.654-0.036-1.3-0.098-1.938 0.062-0.638 0.098-1.284 0.098-1.938v-43.998c0-11.044-8.954-20-20-20H275.962V671.86l36.65-36.65 96.286 96.288a20.002 20.002 0 0 0 28.284 0l27.964-27.964c40.82 66.576 114.268 111.084 197.92 111.084 36.314 0 70.704-8.396 101.338-23.336l91.568 91.568v57.13z m117.512-46.606c-6.716 6.716-15.666 10.442-25.198 10.486l-0.178 0.002c-9.392 0-18.148-3.588-24.67-10.112l-123.752-123.752a233.992 233.992 0 0 0 50.474-50.37l123.7 123.7c13.694 13.696 13.526 36.148-0.376 50.046z" p-id="18549"></path><path d="M789.692 562.63c-11.046 0-20 8.956-20 20 0 58.792-47.832 106.624-106.626 106.624-11.046 0-20 8.954-20 20 0 11.044 8.954 20 20 20 80.85 0 146.626-65.776 146.626-146.624 0-11.044-8.954-20-20-20zM512.236 344.006h-18.254v-133.996c0-11.044-8.954-20-20-20h-91.844c-11.046 0-20 8.956-20 20v133.996h-32.152V128.012c0-11.044-8.954-20-20-20h-87.998c-11.046 0-20 8.956-20 20v215.992H169.994v-87.998c0-11.044-8.954-20-20-20H61.998c-11.046 0-20 8.956-20 20v87.998H20c-11.046 0-20 8.956-20 20s8.954 20 20 20h492.238c11.046 0 20-8.956 20-20-0.002-11.044-8.956-19.998-20.002-19.998z m-382.24 0H81.998v-67.998h47.998v67.998z m159.994 0h-47.998V148.012h47.998v195.994z m163.994 0H402.14v-113.996h51.844v113.996zM674.902 108.012h-154.918c-11.046 0-20 8.956-20 20s8.954 20 20 20h154.918c11.046 0 20-8.956 20-20-0.002-11.044-8.954-20-20-20zM787.974 113.87a20.152 20.152 0 0 0-14.14-5.86c-5.26 0-10.42 2.138-14.14 5.86a20.154 20.154 0 0 0-5.86 14.14c0 5.26 2.14 10.42 5.86 14.138a20.154 20.154 0 0 0 14.14 5.862c5.26 0 10.42-2.14 14.14-5.862a20.144 20.144 0 0 0 5.86-14.138 20.16 20.16 0 0 0-5.86-14.14zM597.442 196.01h-32.794c-11.046 0-20 8.956-20 20s8.954 20 20 20h32.794c11.046 0 20-8.956 20-20s-8.954-20-20-20zM773.83 196.01h-98.928c-11.046 0-20 8.956-20 20s8.954 20 20 20h98.928c11.046 0 20-8.956 20-20s-8.954-20-20-20zM34.158 885.388a20.154 20.154 0 0 0-14.14-5.862c-5.28 0-10.42 2.14-14.14 5.862a20.058 20.058 0 0 0-5.86 14.138c0 5.26 2.12 10.42 5.86 14.14 3.72 3.72 8.86 5.86 14.14 5.86 5.26 0 10.4-2.138 14.14-5.86 3.72-3.72 5.86-8.88 5.86-14.14 0-5.262-2.14-10.422-5.86-14.138z" p-id="18550"></path></svg>