<?xml version="1.0" standalone="no"?><!DOCTYPE svg PUBLIC "-//W3C//DTD SVG 1.1//EN" "http://www.w3.org/Graphics/SVG/1.1/DTD/svg11.dtd"><svg t="1690969777245" class="icon" viewBox="0 0 1024 1024" version="1.1" xmlns="http://www.w3.org/2000/svg" p-id="3237" xmlns:xlink="http://www.w3.org/1999/xlink" width="200" height="200"><path d="M806.163844 1024H166.704553A121.389802 121.389802 0 0 1 45.450314 902.745761V121.254239A121.389802 121.389802 0 0 1 166.704553 0h639.459291a121.389802 121.389802 0 0 1 121.25424 121.254239v319.187397a43.293642 43.293642 0 0 1-86.57496 0v-319.187397a34.728575 34.728575 0 0 0-34.67928-34.691603H166.704553a34.728575 34.728575 0 0 0-34.691603 34.691603v781.491522a34.728575 34.728575 0 0 0 34.691603 34.716251h639.459291a34.716251 34.716251 0 0 0 34.67928-34.67928 43.293642 43.293642 0 0 1 86.57496 0 121.389802 121.389802 0 0 1-121.25424 121.217268z" p-id="3238"></path><path d="M748.919618 285.358462H283.288058a43.281318 43.281318 0 0 1 0-86.562636h465.63156a43.281318 43.281318 0 0 1 0 86.562636zM630.241061 433.897678H283.288058a43.293642 43.293642 0 0 1 0-86.57496h346.953003a43.293642 43.293642 0 0 1 0 86.57496zM504.685802 566.292667H283.288058a43.293642 43.293642 0 0 1 0-86.57496h221.397744a43.293642 43.293642 0 0 1 0 86.57496zM761.99521 770.400067a137.521705 137.521705 0 1 1 136.917837-151.373698 137.534029 137.534029 0 0 1-122.979576 150.67124q-7.024588 0.702459-13.938261 0.702458z m0.16021-215.112587c-2.612654 0-5.225307 0.135562-7.874932 0.394363a77.640178 77.640178 0 1 0 85.03448 69.383206 77.640178 77.640178 0 0 0-77.159548-69.777569z" p-id="3239"></path><path d="M948.565789 814.11272a29.836011 29.836011 0 0 1-18.929414-6.753463l-102.706864-83.802097a29.971573 29.971573 0 0 1 37.834182-46.460868l102.706863 83.802097a29.959249 29.959249 0 0 1-18.904767 53.214331z" p-id="3240"></path></svg>